<svg xmlns="http://www.w3.org/2000/svg" version="1.1" xmlns:xlink="http://www.w3.org/1999/xlink" xmlns:svgjs="http://svgjs.dev/svgjs" width="1440" height="560" preserveAspectRatio="none" viewBox="0 0 1440 560"><g mask="url(&quot;#SvgjsMask1012&quot;)" fill="none"><rect width="1440" height="560" x="0" y="0" fill="#0e2a47"></rect><path d="M247.11913777009448 429.9313101406482L318.2896296351603 372.29858219368276 196.25529178217928 294.3592083695667z" fill="rgba(28, 83, 142, 0.4)" class="triangle-float3"></path><path d="M299.82 199.44 a100.2 100.2 0 1 0 200.4 0 a100.2 100.2 0 1 0 -200.4 0z" fill="rgba(28, 83, 142, 0.4)" class="triangle-float1"></path><path d="M1368.05,570.974C1390.41,571.644,1416.367,571.548,1427.825,552.335C1439.437,532.863,1427.98,509.4,1416.389,489.915C1405.151,471.022,1389.982,453.341,1368.05,451.846C1343.637,450.182,1318.645,461.048,1306.771,482.444C1295.174,503.342,1300.57,529.279,1314.173,548.93C1326.01,566.03,1347.262,570.351,1368.05,570.974" fill="rgba(28, 83, 142, 0.4)" class="triangle-float3"></path><path d="M1207.38,473.583C1241.594,473.59,1276.254,459.614,1292.358,429.427C1307.745,400.586,1296.149,366.852,1279.247,338.872C1263.061,312.077,1238.631,290.574,1207.38,288.749C1172.774,286.728,1137.257,299.859,1119.34,329.535C1100.892,360.09,1103.852,398.936,1122.465,429.39C1140.3,458.571,1173.18,473.576,1207.38,473.583" fill="rgba(28, 83, 142, 0.4)" class="triangle-float1"></path><path d="M1398.825,226.989C1432.669,225.186,1465.172,210.33,1481.63,180.702C1497.663,151.838,1491.48,117.511,1475.771,88.47C1459.096,57.644,1433.768,30.315,1398.825,27.623C1359.234,24.573,1318.916,40.923,1298.187,74.791C1276.62,110.028,1276.395,155.963,1299.182,190.424C1320.097,222.054,1360.959,229.007,1398.825,226.989" fill="rgba(28, 83, 142, 0.4)" class="triangle-float2"></path><path d="M1336.398,303.839C1366.493,304.289,1393.641,284.433,1406.599,257.267C1418.097,233.163,1406.942,206.844,1393.738,183.631C1380.325,160.051,1363.456,135.804,1336.398,133.852C1306.457,131.692,1277.13,147.864,1262.68,174.176C1248.689,199.651,1255.38,229.953,1269.745,255.219C1284.313,280.842,1306.926,303.398,1336.398,303.839" fill="rgba(28, 83, 142, 0.4)" class="triangle-float3"></path></g><defs><mask id="SvgjsMask1012"><rect width="1440" height="560" fill="#ffffff"></rect></mask><style>
                @keyframes float1 {
                    0%{transform: translate(0, 0)}
                    50%{transform: translate(-10px, 0)}
                    100%{transform: translate(0, 0)}
                }

                .triangle-float1 {
                    animation: float1 5s infinite;
                }

                @keyframes float2 {
                    0%{transform: translate(0, 0)}
                    50%{transform: translate(-5px, -5px)}
                    100%{transform: translate(0, 0)}
                }

                .triangle-float2 {
                    animation: float2 4s infinite;
                }

                @keyframes float3 {
                    0%{transform: translate(0, 0)}
                    50%{transform: translate(0, -10px)}
                    100%{transform: translate(0, 0)}
                }

                .triangle-float3 {
                    animation: float3 6s infinite;
                }
            </style></defs></svg>